<?xml version="1.0" encoding="UTF-8"?>
<svg id="Layer_2" data-name="Layer 2" xmlns="http://www.w3.org/2000/svg" xmlns:xlink="http://www.w3.org/1999/xlink" viewBox="0 0 466.41 392.89">
  <defs>
    <style>
      .cls-1 {
        opacity: .7;
      }

      .cls-1, .cls-2, .cls-3, .cls-4 {
        isolation: isolate;
      }

      .cls-2 {
        opacity: .8;
      }

      .cls-3 {
        opacity: .9;
      }

      .cls-5 {
        fill: url(#linear-gradient);
      }

      .cls-5, .cls-6, .cls-7, .cls-8, .cls-9, .cls-10, .cls-11, .cls-12, .cls-13, .cls-14, .cls-15, .cls-16, .cls-17, .cls-18, .cls-19, .cls-20, .cls-21, .cls-22, .cls-23, .cls-24, .cls-25, .cls-26, .cls-27, .cls-28, .cls-29, .cls-30, .cls-31, .cls-32, .cls-33, .cls-34, .cls-35, .cls-36, .cls-37, .cls-38, .cls-39, .cls-40, .cls-41, .cls-42, .cls-43, .cls-44, .cls-45, .cls-46, .cls-47, .cls-48, .cls-49, .cls-50, .cls-51, .cls-52, .cls-53, .cls-54, .cls-55, .cls-56, .cls-57, .cls-58, .cls-59, .cls-60, .cls-61, .cls-62, .cls-63, .cls-64, .cls-65, .cls-66, .cls-67 {
        stroke: #fff;
        stroke-miterlimit: 10;
        stroke-width: .3px;
      }

      .cls-6 {
        fill: url(#linear-gradient-35);
        opacity: .5;
      }

      .cls-7 {
        fill: url(#linear-gradient-14);
      }

      .cls-8 {
        fill: url(#linear-gradient-19);
      }

      .cls-9 {
        fill: url(#linear-gradient-32);
      }

      .cls-10 {
        fill: url(#linear-gradient-20);
      }

      .cls-11 {
        fill: url(#linear-gradient-22);
      }

      .cls-12 {
        fill: url(#linear-gradient-21);
      }

      .cls-13 {
        fill: url(#linear-gradient-17);
      }

      .cls-14 {
        fill: url(#linear-gradient-16);
      }

      .cls-15 {
        fill: url(#linear-gradient-18);
      }

      .cls-16 {
        fill: url(#linear-gradient-34);
      }

      .cls-17 {
        fill: url(#linear-gradient-36);
      }

      .cls-18 {
        fill: url(#linear-gradient-38);
      }

      .cls-19 {
        fill: url(#linear-gradient-15);
      }

      .cls-20 {
        fill: url(#linear-gradient-28);
      }

      .cls-21 {
        fill: url(#linear-gradient-25);
      }

      .cls-22 {
        fill: url(#linear-gradient-23);
      }

      .cls-23 {
        fill: url(#linear-gradient-31);
      }

      .cls-24 {
        fill: url(#linear-gradient-33);
      }

      .cls-25 {
        fill: url(#linear-gradient-30);
      }

      .cls-26 {
        fill: url(#linear-gradient-37);
      }

      .cls-27 {
        fill: url(#linear-gradient-39);
      }

      .cls-28 {
        fill: url(#linear-gradient-29);
      }

      .cls-29 {
        fill: url(#linear-gradient-26);
      }

      .cls-30 {
        fill: url(#linear-gradient-27);
      }

      .cls-31 {
        fill: url(#linear-gradient-24);
      }

      .cls-32 {
        fill: url(#linear-gradient-48);
      }

      .cls-33 {
        fill: url(#linear-gradient-44);
      }

      .cls-34 {
        fill: url(#linear-gradient-45);
      }

      .cls-35 {
        fill: url(#linear-gradient-47);
      }

      .cls-36 {
        fill: url(#linear-gradient-46);
      }

      .cls-37 {
        fill: url(#linear-gradient-49);
      }

      .cls-38 {
        fill: url(#linear-gradient-43);
      }

      .cls-39 {
        fill: url(#linear-gradient-42);
      }

      .cls-40 {
        fill: url(#linear-gradient-41);
      }

      .cls-41 {
        fill: url(#linear-gradient-40);
      }

      .cls-42 {
        fill: url(#linear-gradient-53);
      }

      .cls-43 {
        fill: url(#linear-gradient-56);
      }

      .cls-44 {
        fill: url(#linear-gradient-54);
      }

      .cls-45 {
        fill: url(#linear-gradient-55);
      }

      .cls-46 {
        fill: url(#linear-gradient-57);
      }

      .cls-47 {
        fill: url(#linear-gradient-58);
      }

      .cls-48 {
        fill: url(#linear-gradient-59);
      }

      .cls-49 {
        fill: url(#linear-gradient-60);
      }

      .cls-50 {
        fill: url(#linear-gradient-62);
      }

      .cls-51 {
        fill: url(#linear-gradient-61);
      }

      .cls-52 {
        fill: url(#linear-gradient-51);
      }

      .cls-53 {
        fill: url(#linear-gradient-50);
      }

      .cls-54 {
        fill: url(#linear-gradient-52);
      }

      .cls-55 {
        fill: url(#linear-gradient-63);
      }

      .cls-56 {
        fill: url(#linear-gradient-10);
      }

      .cls-57 {
        fill: url(#linear-gradient-12);
      }

      .cls-58 {
        fill: url(#linear-gradient-11);
      }

      .cls-59 {
        fill: url(#linear-gradient-13);
      }

      .cls-60 {
        fill: url(#linear-gradient-8);
      }

      .cls-61 {
        fill: url(#linear-gradient-7);
      }

      .cls-62 {
        fill: url(#linear-gradient-5);
      }

      .cls-63 {
        fill: url(#linear-gradient-4);
      }

      .cls-64 {
        fill: url(#linear-gradient-6);
      }

      .cls-65 {
        fill: url(#linear-gradient-3);
      }

      .cls-66 {
        fill: url(#linear-gradient-2);
      }

      .cls-67 {
        fill: url(#linear-gradient-9);
      }
    </style>
    <linearGradient id="linear-gradient" x1="295.39" y1="106.22" x2="398.29" y2="106.22" gradientUnits="userSpaceOnUse">
      <stop offset="0" stop-color="#dafdff"/>
      <stop offset="1" stop-color="#8ad2e7"/>
    </linearGradient>
    <linearGradient id="linear-gradient-2" x1=".15" y1="169.12" x2="374.33" y2="169.12" xlink:href="#linear-gradient"/>
    <linearGradient id="linear-gradient-3" x1="243.62" y1="38.2" x2="375.19" y2="38.2" xlink:href="#linear-gradient"/>
    <linearGradient id="linear-gradient-4" x1="221.76" y1="55.59" x2="267.59" y2="55.59" xlink:href="#linear-gradient"/>
    <linearGradient id="linear-gradient-5" x1="16.75" y1="341.41" x2="80.71" y2="341.41" xlink:href="#linear-gradient"/>
    <linearGradient id="linear-gradient-6" x1=".15" y1="272.66" x2="86.75" y2="272.66" xlink:href="#linear-gradient"/>
    <linearGradient id="linear-gradient-7" x1="24.29" y1="183.21" x2="398.46" y2="183.21" xlink:href="#linear-gradient"/>
    <linearGradient id="linear-gradient-8" x1="62.79" y1="119.88" x2="245.72" y2="119.88" xlink:href="#linear-gradient"/>
    <linearGradient id="linear-gradient-9" x1="259.09" y1="163.24" x2="361.04" y2="163.24" gradientUnits="userSpaceOnUse">
      <stop offset="0" stop-color="#cbfcff"/>
      <stop offset="1" stop-color="#7dd0e7"/>
    </linearGradient>
    <linearGradient id="linear-gradient-10" x1="89.91" y1="304.72" x2="283.05" y2="304.72" xlink:href="#linear-gradient-9"/>
    <linearGradient id="linear-gradient-11" x1="23.6" y1="207" x2="337.08" y2="207" xlink:href="#linear-gradient-9"/>
    <linearGradient id="linear-gradient-12" x1="229.29" y1="82.41" x2="338.22" y2="82.41" xlink:href="#linear-gradient-9"/>
    <linearGradient id="linear-gradient-13" x1="219.67" y1="95.23" x2="253.25" y2="95.23" xlink:href="#linear-gradient-9"/>
    <linearGradient id="linear-gradient-14" x1="42.88" y1="358.09" x2="113.87" y2="358.09" xlink:href="#linear-gradient-9"/>
    <linearGradient id="linear-gradient-15" x1="108.01" y1="140.25" x2="243.63" y2="140.25" xlink:href="#linear-gradient-9"/>
    <linearGradient id="linear-gradient-16" x1="23.6" y1="276.09" x2="131.97" y2="276.09" xlink:href="#linear-gradient-9"/>
    <linearGradient id="linear-gradient-17" x1="47.57" y1="220.93" y2="220.93" xlink:href="#linear-gradient-9"/>
    <linearGradient id="linear-gradient-18" x1="48.46" y1="266.13" x2="272.87" y2="266.13" gradientUnits="userSpaceOnUse">
      <stop offset="0" stop-color="#c0faff"/>
      <stop offset="1" stop-color="#73cae7"/>
    </linearGradient>
    <linearGradient id="linear-gradient-19" x1="225.73" y1="239.44" x2="296.84" y2="239.44" xlink:href="#linear-gradient-18"/>
    <linearGradient id="linear-gradient-20" x1="212.17" y1="188.41" x2="283.04" y2="188.41" xlink:href="#linear-gradient-18"/>
    <linearGradient id="linear-gradient-21" x1="104.65" y1="330.39" x2="249.69" y2="330.39" xlink:href="#linear-gradient-18"/>
    <linearGradient id="linear-gradient-22" x1="199.31" y1="186.46" x2="236.13" y2="186.46" xlink:href="#linear-gradient-18"/>
    <linearGradient id="linear-gradient-23" x1="64.8" y1="369.18" x2="128.61" y2="369.18" xlink:href="#linear-gradient-18"/>
    <linearGradient id="linear-gradient-24" x1="125.27" y1="201.19" x2="223.27" y2="201.19" xlink:href="#linear-gradient-18"/>
    <linearGradient id="linear-gradient-25" y1="299.23" x2="149.23" y2="299.23" xlink:href="#linear-gradient-18"/>
    <linearGradient id="linear-gradient-26" x1="72.43" y1="280.06" x2="296.84" y2="280.06" xlink:href="#linear-gradient-18"/>
    <linearGradient id="linear-gradient-27" x1="74.42" y1="288.2" x2="277.25" y2="288.2" gradientUnits="userSpaceOnUse">
      <stop offset="0" stop-color="#7bfff8"/>
      <stop offset="1" stop-color="#3ed6e7"/>
    </linearGradient>
    <linearGradient id="linear-gradient-28" x1="232.39" y1="260.88" x2="301.21" y2="260.88" xlink:href="#linear-gradient-27"/>
    <linearGradient id="linear-gradient-29" x1="219.25" y1="212.42" x2="288.08" y2="212.42" xlink:href="#linear-gradient-27"/>
    <linearGradient id="linear-gradient-30" x1="118.9" y1="346.94" x2="256.35" y2="346.94" xlink:href="#linear-gradient-27"/>
    <linearGradient id="linear-gradient-31" x1="212.85" y1="213.42" x2="243.21" y2="213.42" xlink:href="#linear-gradient-27"/>
    <linearGradient id="linear-gradient-32" x1="188.42" y1="210.16" x2="236.81" y2="210.16" xlink:href="#linear-gradient-27"/>
    <linearGradient id="linear-gradient-33" x1="87.36" y1="382.74" x2="142.87" y2="382.74" xlink:href="#linear-gradient-27"/>
    <linearGradient id="linear-gradient-34" x1="183.44" y1="213.28" x2="212.38" y2="213.28" xlink:href="#linear-gradient-27"/>
    <linearGradient id="linear-gradient-35" y1="334.13" x2="131.92" y2="334.13" xlink:href="#linear-gradient-27"/>
    <linearGradient id="linear-gradient-36" x1="98.39" y1="302.13" x2="301.21" y2="302.13" xlink:href="#linear-gradient-27"/>
    <linearGradient id="linear-gradient-37" x1="107.96" y1="246.88" x2="207.41" y2="246.88" xlink:href="#linear-gradient-27"/>
    <linearGradient id="linear-gradient-38" x1="393.74" y1="208.35" x2="464.21" y2="208.35" gradientUnits="userSpaceOnUse">
      <stop offset="0" stop-color="#8cfff9"/>
      <stop offset="1" stop-color="#33d2e7"/>
    </linearGradient>
    <linearGradient id="linear-gradient-39" x1="212.22" y1="245.2" x2="440.25" y2="245.2" xlink:href="#linear-gradient-38"/>
    <linearGradient id="linear-gradient-40" x1="376.79" y1="159.74" x2="450.6" y2="159.74" xlink:href="#linear-gradient-38"/>
    <linearGradient id="linear-gradient-41" x1="372.58" y1="167.95" x2="400.76" y2="167.95" xlink:href="#linear-gradient-38"/>
    <linearGradient id="linear-gradient-42" x1="244.5" y1="306.67" x2="417.7" y2="306.67" xlink:href="#linear-gradient-38"/>
    <linearGradient id="linear-gradient-43" x1="244.06" y1="349.88" x2="268.47" y2="349.88" xlink:href="#linear-gradient-38"/>
    <linearGradient id="linear-gradient-44" x1="221.48" y1="352.18" x2="268.03" y2="352.18" xlink:href="#linear-gradient-38"/>
    <linearGradient id="linear-gradient-45" x1="290.15" y1="199.13" x2="396.54" y2="199.13" xlink:href="#linear-gradient-38"/>
    <linearGradient id="linear-gradient-46" x1="269.92" y1="244.58" x2="314.12" y2="244.58" xlink:href="#linear-gradient-38"/>
    <linearGradient id="linear-gradient-47" x1="268.85" y1="253.56" x2="293.88" y2="253.56" xlink:href="#linear-gradient-38"/>
    <linearGradient id="linear-gradient-48" x1="243.86" y1="264.62" x2="292.82" y2="264.62" xlink:href="#linear-gradient-38"/>
    <linearGradient id="linear-gradient-49" x1="212.22" y1="314.63" x2="267.82" y2="314.63" xlink:href="#linear-gradient-38"/>
    <linearGradient id="linear-gradient-50" x1="236.19" y1="259.12" y2="259.12" xlink:href="#linear-gradient-38"/>
    <linearGradient id="linear-gradient-51" x1="220.44" y1="271.54" x2="442.29" y2="271.54" gradientUnits="userSpaceOnUse">
      <stop offset="0" stop-color="#dbfdff"/>
      <stop offset="1" stop-color="#8cd3e7"/>
    </linearGradient>
    <linearGradient id="linear-gradient-52" x1="397.05" y1="235.88" x2="466.26" y2="235.88" xlink:href="#linear-gradient-51"/>
    <linearGradient id="linear-gradient-53" x1="380.56" y1="188.58" x2="453.01" y2="188.58" xlink:href="#linear-gradient-51"/>
    <linearGradient id="linear-gradient-54" x1="376.46" y1="196.58" x2="404.52" y2="196.58" xlink:href="#linear-gradient-51"/>
    <linearGradient id="linear-gradient-55" x1="251.85" y1="331.54" x2="421.01" y2="331.54" xlink:href="#linear-gradient-51"/>
    <linearGradient id="linear-gradient-56" x1="251.42" y1="373.57" x2="275.81" y2="373.57" xlink:href="#linear-gradient-51"/>
    <linearGradient id="linear-gradient-57" x1="229.45" y1="375.82" x2="275.39" y2="375.82" xlink:href="#linear-gradient-51"/>
    <linearGradient id="linear-gradient-58" x1="305.63" y1="215.02" x2="400.42" y2="215.02" xlink:href="#linear-gradient-51"/>
    <linearGradient id="linear-gradient-59" x1="302.31" y1="236.71" x2="329.59" y2="236.71" xlink:href="#linear-gradient-51"/>
    <linearGradient id="linear-gradient-60" x1="251.22" y1="291.04" x2="291.68" y2="291.04" xlink:href="#linear-gradient-51"/>
    <linearGradient id="linear-gradient-61" x1="266.7" y1="256.56" x2="326.27" y2="256.56" xlink:href="#linear-gradient-51"/>
    <linearGradient id="linear-gradient-62" y1="339.29" x2="275.19" y2="339.29" xlink:href="#linear-gradient-51"/>
    <linearGradient id="linear-gradient-63" x1="244.4" y1="285.47" x2="466.26" y2="285.47" xlink:href="#linear-gradient-51"/>
  </defs>
  <g id="Layer_1-2" data-name="Layer 1">
    <g class="cls-4">
      <path class="cls-5" d="M375.19,19.42c14.22,8.26,23.03,25.83,23.1,50.8.14,50.26-35.2,111.47-78.94,136.72l-23.96-13.93c43.73-25.25,79.08-86.46,78.94-136.72-.07-24.97-8.89-42.53-23.1-50.8,7.19,4.18,16.77,9.75,23.96,13.93Z"/>
      <path class="cls-66" d="M294.87,11.01c43.73-25.25,79.31-4.98,79.45,45.28.14,50.26-35.2,111.47-78.94,136.72L56.74,330.8C25.59,348.09.25,333.65.15,297.85c-.1-35.79,25.07-79.4,56.23-97.38,2.17-1.25,4.31-2.33,6.41-3.28,2.08-58.1,42.74-126.91,92.72-155.77,40.65-23.47,75.3-13.49,88.11,20.91,13.78-21.5,31.68-40.01,51.25-51.31Z"/>
      <path class="cls-65" d="M351.23,5.49c-14.4-8.37-34.34-7.19-56.35,5.52-19.58,11.3-37.47,29.81-51.25,51.31l23.96,13.93c13.78-21.5,31.68-40.01,51.25-51.31,22.01-12.71,41.95-13.89,56.35-5.52l-23.96-13.93Z"/>
      <path class="cls-63" d="M245.72,48.86c9.67,5.62,17.21,14.89,21.87,27.4l-23.96-13.93c-4.66-12.5-12.2-21.78-21.87-27.4,7.19,4.18,16.77,9.75,23.96,13.93Z"/>
      <path class="cls-62" d="M16.75,334.21c10.25,5.95,24.39,5.25,39.99-3.41l23.96,13.93c-15.6,8.66-29.74,9.36-39.99,3.41-7.19-4.18-16.77-9.75-23.96-13.93Z"/>
      <path class="cls-64" d="M40.72,348.13l-23.96-13.93C6.54,328.27.2,315.72.15,297.85c-.1-35.79,25.07-79.4,56.23-97.38,2.17-1.25,4.31-2.33,6.41-3.28l23.96,13.93c-2.1.94-4.24,2.02-6.41,3.28-31.15,17.98-56.33,61.59-56.23,97.38.05,17.87,6.39,30.42,16.6,36.36Z"/>
      <path class="cls-61" d="M319.01,25.1c43.73-25.25,79.31-4.98,79.45,45.28.14,50.26-35.2,111.47-78.94,136.72l-238.65,137.78c-31.15,17.3-56.49,2.86-56.59-32.95-.1-35.79,25.07-79.4,56.23-97.38,2.17-1.25,4.31-2.33,6.41-3.28,2.08-58.1,42.74-126.91,92.72-155.77,40.65-23.47,75.3-13.49,88.11,20.91,13.78-21.5,31.68-40.01,51.25-51.31Z"/>
      <path class="cls-60" d="M221.76,34.93l23.96,13.93c-16.93-9.84-40.37-8.45-66.25,6.49-49.99,28.86-90.64,97.67-92.72,155.77l-23.96-13.93c2.08-58.1,42.74-126.91,92.72-155.77,25.88-14.94,49.32-16.33,66.25-6.49Z"/>
    </g>
    <g class="cls-3">
      <path class="cls-67" d="M338.22,77.55c14.05,8.16,22.76,25.52,22.83,50.2.14,49.66-34.78,110.14-78,135.09l-23.96-13.93c43.22-24.95,78.14-85.43,78-135.09-.07-24.67-8.78-42.03-22.83-50.2,7.19,4.18,16.77,9.75,23.96,13.93Z"/>
      <polygon class="cls-56" points="283.05 262.84 113.87 360.52 89.91 346.6 259.09 248.92 283.05 262.84"/>
      <path class="cls-58" d="M172.65,88.58c23.96-13.83,44.99-11.29,56.64,3.96,9.04-9.43,18.92-17.48,29.29-23.46,43.22-24.95,78.36-4.92,78.51,44.75.14,49.66-34.78,110.14-78,135.09l-169.18,97.68c-36.5,21.07-66.18,4.15-66.3-37.78-.12-41.94,29.37-93.03,65.87-114.1,6.44-3.72,12.65-6.22,18.54-7.65,5.92-38.29,32.57-79.96,64.64-98.47Z"/>
      <path class="cls-57" d="M314.25,63.63l23.96,13.93c-14.23-8.27-33.93-7.1-55.68,5.45-10.37,5.99-20.25,14.03-29.29,23.46l-23.96-13.93c9.04-9.43,18.92-17.48,29.29-23.46,21.75-12.56,41.45-13.72,55.68-5.45Z"/>
      <path class="cls-59" d="M243.63,97.91c3.66,2.13,6.9,5,9.62,8.56l-23.96-13.93c-2.72-3.56-5.96-6.43-9.62-8.56,7.19,4.18,16.77,9.75,23.96,13.93Z"/>
      <path class="cls-7" d="M42.88,351.2c12.02,6.98,28.66,6,47.02-4.6l23.96,13.93c-18.37,10.6-35.01,11.59-47.02,4.6-7.19-4.18-16.77-9.75-23.96-13.93Z"/>
      <path class="cls-19" d="M219.67,83.98c-12.02-6.98-28.66-6-47.02,4.6-32.06,18.51-58.72,60.18-64.64,98.47l23.96,13.93c5.92-38.29,32.57-79.96,64.64-98.47,18.36-10.6,35-11.59,47.02-4.6l-23.96-13.93Z"/>
      <path class="cls-14" d="M66.84,365.13l-23.96-13.93c-11.86-6.89-19.22-21.55-19.28-42.39-.12-41.94,29.37-93.03,65.87-114.1,6.44-3.72,12.65-6.22,18.54-7.65l23.96,13.93c-5.89,1.43-12.1,3.94-18.54,7.65-36.5,21.07-65.99,72.16-65.87,114.1.06,20.83,7.42,35.49,19.28,42.39Z"/>
      <path class="cls-13" d="M196.61,102.51c23.96-13.83,44.99-11.29,56.64,3.96,9.04-9.43,18.92-17.48,29.29-23.46,43.22-24.95,78.36-4.92,78.51,44.75.14,49.66-34.78,110.14-78,135.09l-169.18,97.68c-36.5,21.07-66.18,4.15-66.3-37.78-.12-41.94,29.37-93.03,65.87-114.1,6.44-3.72,12.65-6.22,18.54-7.65,5.92-38.29,32.57-79.96,64.64-98.47Z"/>
    </g>
    <g class="cls-2">
      <path class="cls-15" d="M165.66,172.69c22.95-13.25,42.13-5.51,46.51,16.92,4.21-3.84,8.65-7.18,13.25-9.84,26.12-15.08,47.37-2.97,47.45,27.04.09,30.02-21.02,66.58-47.14,81.66l-121.08,69.9c-30.93,17.86-56.09,3.52-56.19-32.02-.1-35.55,24.89-78.83,55.82-96.69,7.41-4.28,14.5-6.69,20.98-7.42,8.25-20.49,23.24-39.65,40.39-49.55Z"/>
      <path class="cls-8" d="M283.04,190.4c8.49,4.93,13.76,15.43,13.8,30.34.09,30.02-21.02,66.58-47.14,81.66l-23.96-13.93c26.12-15.08,47.23-51.64,47.14-81.66-.04-14.91-5.31-25.4-13.8-30.34,7.19,4.18,16.77,9.75,23.96,13.93Z"/>
      <path class="cls-10" d="M259.08,176.48l23.96,13.93c-8.6-5-20.51-4.29-33.65,3.29-4.6,2.66-9.04,5.99-13.25,9.84l-23.96-13.93c4.21-3.84,8.65-7.18,13.25-9.84,13.14-7.59,25.05-8.29,33.65-3.29Z"/>
      <polygon class="cls-12" points="249.69 302.4 128.61 372.3 104.65 358.38 225.73 288.47 249.69 302.4"/>
      <path class="cls-11" d="M223.27,183.32c6.42,3.73,10.99,10.63,12.86,20.21l-23.96-13.93c-1.87-9.58-6.44-16.48-12.86-20.21,7.19,4.18,16.77,9.75,23.96,13.93Z"/>
      <path class="cls-22" d="M64.8,362.28c10.18,5.92,24.29,5.08,39.85-3.9l23.96,13.93c-15.57,8.99-29.67,9.82-39.85,3.9-7.19-4.18-16.77-9.75-23.96-13.93Z"/>
      <path class="cls-31" d="M199.31,169.39c-8.6-5-20.5-4.29-33.65,3.3-17.15,9.9-32.14,29.07-40.39,49.55l23.96,13.93c8.25-20.49,23.24-39.65,40.39-49.55,13.14-7.59,25.05-8.29,33.65-3.3l-23.96-13.93Z"/>
      <path class="cls-21" d="M88.76,376.21l-23.96-13.93c-10.05-5.84-16.29-18.27-16.34-35.92-.1-35.55,24.89-78.83,55.82-96.69,7.41-4.28,14.5-6.69,20.98-7.42l23.96,13.93c-6.48.73-13.57,3.15-20.98,7.42-30.93,17.86-55.92,61.15-55.82,96.69.05,17.66,6.28,30.08,16.34,35.92Z"/>
      <path class="cls-29" d="M189.62,186.61c22.95-13.25,42.13-5.51,46.51,16.92,4.21-3.84,8.65-7.18,13.25-9.84,26.12-15.08,47.37-2.97,47.45,27.04.09,30.02-21.02,66.58-47.14,81.66l-121.08,69.9c-30.93,17.86-56.09,3.52-56.19-32.02-.1-35.55,24.89-78.83,55.82-96.69,7.41-4.28,14.5-6.69,20.98-7.42,8.25-20.49,23.24-39.65,40.39-49.55Z"/>
    </g>
    <g class="cls-2">
      <path class="cls-30" d="M151.92,207.41c15.11-8.72,28.46-7.73,36.5.91,2.7-2.92,5.68-5.4,8.81-7.21,12.03-6.94,21.83-1.47,22.01,12.23,4.07-3.75,8.38-6.99,12.85-9.57,24.86-14.35,45.08-2.83,45.16,25.74s-20,63.36-44.87,77.71l-113.48,65.52c-24.49,14.14-44.4,2.79-44.48-25.34-.07-23.91,14.22-52.25,33.53-68.89,2.24-26.98,21.04-57.86,43.96-71.1Z"/>
      <path class="cls-20" d="M288.08,214.55c8.08,4.7,13.09,14.68,13.13,28.88.08,28.57-20,63.36-44.87,77.71l-23.96-13.93c24.86-14.35,44.95-49.14,44.87-77.71-.04-14.19-5.05-24.18-13.13-28.88,7.19,4.18,16.77,9.75,23.96,13.93Z"/>
      <path class="cls-28" d="M264.12,200.63l23.96,13.93c-8.18-4.76-19.52-4.09-32.03,3.14-4.47,2.58-8.78,5.82-12.85,9.57l-23.96-13.93c4.07-3.75,8.38-6.99,12.85-9.57,12.51-7.22,23.84-7.89,32.03-3.14Z"/>
      <polygon class="cls-25" points="256.35 321.14 142.87 386.66 118.9 372.73 232.39 307.21 256.35 321.14"/>
      <path class="cls-23" d="M236.81,213.5c3.88,2.25,6.31,7.01,6.4,13.76l-23.96-13.93c-.09-6.75-2.52-11.51-6.4-13.76,7.19,4.18,16.77,9.75,23.96,13.93Z"/>
      <path class="cls-9" d="M212.85,199.57l23.96,13.93c-3.99-2.32-9.52-1.99-15.62,1.53-3.13,1.81-6.11,4.29-8.81,7.21l-23.96-13.93c2.7-2.92,5.68-5.4,8.81-7.21,6.1-3.52,11.63-3.85,15.62-1.53Z"/>
      <path class="cls-24" d="M87.36,375.82c8.06,4.68,19.23,4.03,31.55-3.09l23.96,13.93c-12.32,7.11-23.49,7.77-31.55,3.09-7.19-4.18-16.77-9.75-23.96-13.93Z"/>
      <path class="cls-16" d="M207.41,218.25c1.83,1.06,3.49,2.4,4.98,3.99l-23.96-13.93c-1.48-1.6-3.15-2.93-4.98-3.99,7.19,4.18,16.77,9.75,23.96,13.93Z"/>
      <path class="cls-6" d="M111.32,389.75l-23.96-13.93c-7.96-4.62-12.89-14.46-12.93-28.43-.07-23.91,14.22-52.25,33.53-68.89l23.96,13.93c-19.32,16.64-33.6,44.98-33.53,68.89.04,13.97,4.97,23.8,12.93,28.43Z"/>
      <path class="cls-17" d="M175.88,221.33c15.11-8.72,28.46-7.73,36.5.91,2.7-2.92,5.68-5.4,8.81-7.21,12.03-6.94,21.83-1.47,22.01,12.23,4.07-3.75,8.38-6.99,12.85-9.57,24.86-14.35,45.08-2.83,45.16,25.74s-20,63.36-44.87,77.71l-113.48,65.52c-24.49,14.14-44.4,2.79-44.48-25.34-.07-23.91,14.22-52.25,33.53-68.89,2.24-26.98,21.04-57.86,43.96-71.1Z"/>
      <path class="cls-26" d="M183.44,204.32c-8.06-4.68-19.21-4.03-31.52,3.08-22.93,13.24-41.72,44.12-43.96,71.1l23.96,13.93c2.24-26.98,21.04-57.86,43.96-71.1,12.32-7.11,23.47-7.77,31.52-3.08l-23.96-13.93Z"/>
    </g>
    <g class="cls-4">
      <path class="cls-18" d="M450.6,160.08c8.37,4.87,13.57,15.21,13.61,29.92.08,29.61-20.74,65.68-46.51,80.55l-23.96-13.93c25.77-14.88,46.59-50.94,46.51-80.55-.04-14.71-5.23-25.05-13.61-29.92,7.19,4.18,16.77,9.75,23.96,13.93Z"/>
      <path class="cls-27" d="M337.09,162.9c16.17-9.33,30.55-8.78,39.71-.36,5.17-5.26,10.77-9.75,16.64-13.14,25.77-14.88,46.73-2.93,46.81,26.67.08,29.61-20.74,65.68-46.51,80.55l-149.23,86.16-.44.25c-17.53,10.12-31.78,1.99-31.84-18.15-.06-20.14,14.11-44.67,31.63-54.79,1.1-8.81,7.17-18.6,14.56-22.86,4.65-2.69,8.81-2.59,11.5-.26,2.49-6.85,7.43-13.38,13.13-16.67,2.57-1.49,4.99-2.14,7.1-2.04,6.79-26.21,25.22-52.82,46.93-65.36Z"/>
      <path class="cls-41" d="M426.64,146.15l23.96,13.93c-8.48-4.93-20.23-4.24-33.2,3.25-5.87,3.39-11.47,7.88-16.64,13.14l-23.96-13.93c5.17-5.26,10.77-9.75,16.64-13.14,12.97-7.49,24.72-8.18,33.2-3.25Z"/>
      <path class="cls-40" d="M396.54,173.36c1.5.87,2.91,1.91,4.21,3.11l-23.96-13.93c-1.3-1.2-2.71-2.24-4.21-3.11,7.19,4.18,16.77,9.75,23.96,13.93Z"/>
      <polygon class="cls-39" points="417.7 270.55 268.47 356.71 244.5 342.79 393.74 256.62 417.7 270.55"/>
      <polygon class="cls-38" points="268.47 356.71 268.03 356.97 244.06 343.04 244.5 342.79 268.47 356.71"/>
      <path class="cls-33" d="M221.48,345.25c5.77,3.35,13.76,2.88,22.58-2.21l23.96,13.93c-8.82,5.09-16.81,5.56-22.58,2.21-7.19-4.18-16.77-9.75-23.96-13.93Z"/>
      <path class="cls-34" d="M372.58,159.43c-9.07-5.27-21.62-4.54-35.49,3.47-21.71,12.54-40.14,39.15-46.93,65.36l23.96,13.93c6.79-26.21,25.22-52.82,46.93-65.36,13.87-8.01,26.42-8.74,35.49-3.47l-23.96-13.93Z"/>
      <path class="cls-36" d="M293.88,260.9l-23.96-13.93c2.49-6.85,7.43-13.38,13.13-16.67,2.57-1.49,4.99-2.14,7.1-2.04l23.96,13.93c-2.11-.1-4.53.56-7.1,2.04-5.7,3.29-10.64,9.82-13.13,16.67Z"/>
      <path class="cls-35" d="M292.82,260.14c.38.22.73.47,1.07.76l-23.96-13.93c-.33-.29-.69-.54-1.07-.76,7.19,4.18,16.77,9.75,23.96,13.93Z"/>
      <path class="cls-32" d="M268.85,246.21l23.96,13.93c-2.67-1.55-6.36-1.34-10.44,1.02-7.39,4.26-13.46,14.05-14.56,22.86l-23.96-13.93c1.1-8.81,7.17-18.6,14.56-22.86,4.08-2.35,7.77-2.57,10.44-1.02Z"/>
      <path class="cls-37" d="M245.45,359.18l-23.96-13.93c-5.7-3.31-9.23-10.35-9.26-20.36-.06-20.14,14.11-44.67,31.63-54.79l23.96,13.93c-17.53,10.12-31.69,34.65-31.63,54.79.03,10.01,3.56,17.05,9.26,20.36Z"/>
      <path class="cls-53" d="M361.05,176.83c16.17-9.33,30.55-8.78,39.71-.36,5.17-5.26,10.77-9.75,16.64-13.14,25.77-14.88,46.73-2.93,46.81,26.67.08,29.61-20.74,65.68-46.51,80.55l-149.23,86.16-.44.25c-17.53,10.12-31.78,1.99-31.84-18.15-.06-20.14,14.11-44.67,31.63-54.79,1.1-8.81,7.17-18.6,14.56-22.86,4.65-2.69,8.81-2.59,11.5-.26,2.49-6.85,7.43-13.38,13.13-16.67,2.57-1.49,4.99-2.14,7.1-2.04,6.79-26.21,25.22-52.82,46.93-65.36Z"/>
    </g>
    <g class="cls-1">
      <path class="cls-52" d="M341.93,191.48c15.73-9.08,29.72-8.55,38.63-.35,5.03-5.12,10.49-9.49,16.19-12.79,25.07-14.47,45.46-2.86,45.54,25.95s-20.18,63.9-45.25,78.37l-145.19,83.83-.43.25c-17.06,9.85-30.93,1.94-30.98-17.66-.06-19.6,13.72-43.47,30.78-53.32,1.06-8.56,6.98-18.09,14.17-22.24.79-.46,1.57-.83,2.33-1.12-.65-1.95-1.02-4.2-1.02-6.77-.04-13.23,9.27-29.34,20.78-35.99,7.76-4.48,14.55-3.51,18.15,1.64,8.85-16.68,21.83-31.46,36.3-39.81Z"/>
      <path class="cls-54" d="M453.01,189.1c8.15,4.74,13.2,14.8,13.24,29.12.08,28.8-20.18,63.9-45.25,78.37l-23.96-13.93c25.07-14.47,45.33-49.57,45.25-78.37-.04-14.31-5.09-24.38-13.24-29.12,7.19,4.18,16.77,9.75,23.96,13.93Z"/>
      <path class="cls-42" d="M429.05,175.17l23.96,13.93c-8.25-4.8-19.69-4.12-32.3,3.16-5.71,3.3-11.16,7.67-16.19,12.79l-23.96-13.93c5.03-5.12,10.49-9.49,16.19-12.79,12.61-7.28,24.05-7.96,32.3-3.16Z"/>
      <path class="cls-44" d="M400.42,202.03c1.46.85,2.83,1.86,4.1,3.03l-23.96-13.93c-1.27-1.17-2.64-2.18-4.1-3.03,7.19,4.18,16.77,9.75,23.96,13.93Z"/>
      <polygon class="cls-45" points="421.01 296.59 275.81 380.41 251.85 366.49 397.05 282.66 421.01 296.59"/>
      <polygon class="cls-43" points="275.81 380.41 275.39 380.66 251.42 366.73 251.85 366.49 275.81 380.41"/>
      <path class="cls-46" d="M229.45,368.89c5.61,3.26,13.39,2.8,21.97-2.15l23.96,13.93c-8.58,4.96-16.36,5.42-21.97,2.15-7.19-4.18-16.77-9.75-23.96-13.93Z"/>
      <path class="cls-47" d="M376.46,188.1c-8.82-5.13-21.04-4.41-34.53,3.38-14.47,8.36-27.45,23.14-36.3,39.81l23.96,13.93c8.85-16.68,21.83-31.46,36.3-39.81,13.49-7.79,25.7-8.5,34.53-3.38l-23.96-13.93Z"/>
      <path class="cls-48" d="M326.27,242.12c1.29.75,2.41,1.79,3.32,3.09l-23.96-13.93c-.92-1.31-2.03-2.35-3.32-3.09,7.19,4.18,16.77,9.75,23.96,13.93Z"/>
      <path class="cls-49" d="M275.19,309.69l-23.96-13.93c1.06-8.56,6.98-18.09,14.17-22.24.79-.46,1.57-.83,2.33-1.12l23.96,13.93c-.76.29-1.54.66-2.33,1.12-7.19,4.15-13.1,13.68-14.17,22.24Z"/>
      <path class="cls-51" d="M302.31,228.2l23.96,13.93c-3.79-2.2-9.04-1.89-14.83,1.45-11.51,6.65-20.82,22.76-20.78,35.99,0,2.56.37,4.82,1.02,6.77l-23.96-13.93c-.65-1.95-1.02-4.2-1.02-6.77-.04-13.23,9.27-29.34,20.78-35.99,5.79-3.35,11.04-3.65,14.83-1.45Z"/>
      <path class="cls-50" d="M253.41,382.81l-23.96-13.93c-5.54-3.22-8.98-10.07-9.01-19.81-.06-19.6,13.72-43.47,30.78-53.32l23.96,13.93c-17.06,9.85-30.84,33.71-30.78,53.32.03,9.74,3.46,16.59,9.01,19.81Z"/>
      <path class="cls-55" d="M365.89,205.4c15.73-9.08,29.72-8.55,38.63-.35,5.03-5.12,10.49-9.49,16.19-12.79,25.07-14.47,45.46-2.86,45.54,25.95s-20.18,63.9-45.25,78.37l-145.19,83.83-.43.25c-17.06,9.85-30.93,1.94-30.98-17.66-.06-19.6,13.72-43.47,30.78-53.32,1.06-8.56,6.98-18.09,14.17-22.24.79-.46,1.57-.83,2.33-1.12-.65-1.95-1.02-4.2-1.02-6.77-.04-13.23,9.27-29.34,20.78-35.99,7.76-4.48,14.55-3.51,18.15,1.64,8.85-16.68,21.83-31.46,36.3-39.81Z"/>
    </g>
  </g>
</svg>